# xmcd
#
# Track frame offsets: 
#        150
#        21832
#        33652
#        50815
#        69340
#        80730
#        93307
#        114307
#        131707
#        151027
#        169825
#        191940
#        210007
#        227365
#        242722
#        264180
#        277867
#        291907
#        309337
#        323870
#
# Disc length: 4468 seconds
#
# Revision: 8
# Processed by: cddbd v1.5.2PL0 Copyright (c) Steve Scherf et al.
# Submitted via: ExactAudioCopy v1.1
#
DISCID=0d117214
DTITLE=Various Artist - Freewheeling [Part 1] [Daily Mail]
DYEAR=2003
DGENRE=Easy Listening
TTITLE0=The Isley Brothers - Summer Breeze
TTITLE1=Sly and The Family Stone - Hot Fun In The Summertime
TTITLE2=Bill Withers - Lovely Day
TTITLE3=The Stranglers - Always The Sun
TTITLE4=Andy Williams - Music To Watch Girls By
TTITLE5=Johnny Nash - I Can See Clearly Now
TTITLE6=Heatwave - Boogie Nights
TTITLE7=Cyndi Lauper - Girls Just Want To Have Fun
TTITLE8=Spin Doctors - Two Princes
TTITLE9=Kula Shaker - Hey Dude
TTITLE10=Meat Loaf - Bat Out Of Hell
TTITLE11=Reo Speedwagon - Take It On The Run
TTITLE12=Blue Oyster Cult - (Don't Fear) The Reaper
TTITLE13=Boston - More Than A Feeling
TTITLE14=Santana - Samba Pa Ti
TTITLE15=Van Morrison - Brown Eyed Girl
TTITLE16=Fleetwood Mac - Albatross
TTITLE17=Simon and Garfunkel - Mrs. Robinson
TTITLE18=The Union Gap ft Gary Puckett - Young Girl
TTITLE19=The Byrds - Mr. Tambourine Man
EXTD=
EXTT0=1974
EXTT1=1969
EXTT2=1977
EXTT3=1986
EXTT4=1967
EXTT5=1972
EXTT6=1976
EXTT7=1983
EXTT8=1991
EXTT9=1996
EXTT10=1977
EXTT11=1980
EXTT12=1976
EXTT13=1976
EXTT14=1970
EXTT15=1967
EXTT16=1968
EXTT17=1968
EXTT18=1968
EXTT19=1965
PLAYORDER=
